USFL
nRows=98
nColumns=2
inDegrees=yes
endheader
time	med_gas_r	
3.9375	 46.392410	
4	 46.397650	
4.0625	 46.260248	
4.125	 46.336966	
4.1875	 46.540708	
4.25	 46.337111	
4.3125	 46.334480	
4.375	 46.543874	
4.4375	 46.731115	
4.5	 46.771441	
4.5625	 46.671980	
4.625	 46.665540	
4.6875	 46.394804	
4.75	 46.328046	
4.8125	 46.354099	
4.875	 46.234436	
4.9375	 46.357577	
5	 46.294109	
5.0625	 46.349169	
5.125	 46.217808	
5.1875	 46.367965	
5.25	 46.614537	
5.3125	 46.631392	
5.375	 46.677732	
5.4375	 46.496439	
5.5	 45.443717	
5.5625	 45.032007	
5.625	 44.075450	
5.6875	 44.698468	
5.75	 43.359274	
5.8125	 37.165925	
5.875	 37.834739	
5.9375	 37.992500	
6	 37.320115	
6.0625	 36.795676	
6.125	 36.556837	
6.1875	 36.693008	
6.25	 36.336123	
6.3125	 36.161341	
6.375	 35.978290	
6.4375	 35.986549	
6.5	 36.278660	
6.5625	 35.941084	
6.625	 36.114262	
6.6875	 35.729194	
6.75	 36.087424	
6.8125	 35.606226	
6.875	 35.471678	
6.9375	 35.318197	
7	 35.336718	
7.0625	 35.292964	
7.125	 35.395444	
7.1875	 35.482677	
7.25	 35.742020	
7.3125	 35.784819	
7.375	 36.136271	
7.4375	 36.220130	
7.5	 36.337834	
7.5625	 36.830071	
7.625	 37.069391	
7.6875	 37.032751	
7.75	 36.878485	
7.8125	 37.022736	
7.875	 36.994785	
7.9375	 37.128102	
8	 36.669094	
8.0625	 36.912502	
8.125	 37.585757	
8.1875	 37.820285	
8.25	 38.061913	
8.3125	 38.065293	
8.375	 38.741811	
8.4375	 38.863389	
8.5	 39.302697	
8.5625	 39.446539	
8.625	 39.194326	
8.6875	 39.446232	
8.75	 39.474559	
8.8125	 39.349229	
8.875	 39.248981	
8.9375	 39.289551	
9	 39.536170	
9.0625	 39.395228	
9.125	 39.443049	
9.1875	 39.340430	
9.25	 39.198669	
9.3125	 39.139606	
9.375	 38.961108	
9.4375	 39.218838	
9.5	 39.389622	
9.5625	 41.443773	
9.625	 40.239899	
9.6875	 42.203870	
9.75	 42.194737	
9.8125	 43.520969	
9.875	 44.874312	
9.9375	 45.646920	
10	 46.026266	
